<?xml version="1.0" encoding="UTF-8" standalone="no"?>
<!-- Created with Inkscape (http://www.inkscape.org/) -->

<svg
   width="132"
   height="48"
   viewBox="0 0 132 48"
   version="1.1"
   id="svg1"
   inkscape:export-filename="logoDuo.svg"
   inkscape:export-xdpi="96"
   inkscape:export-ydpi="96"
   inkscape:version="1.3.2 (091e20e, 2023-11-25, custom)"
   sodipodi:docname="logoDuo.svg"
   xmlns:inkscape="http://www.inkscape.org/namespaces/inkscape"
   xmlns:sodipodi="http://sodipodi.sourceforge.net/DTD/sodipodi-0.dtd"
   xmlns="http://www.w3.org/2000/svg"
   xmlns:svg="http://www.w3.org/2000/svg">
  <sodipodi:namedview
     id="namedview1"
     pagecolor="#505050"
     bordercolor="#eeeeee"
     borderopacity="1"
     inkscape:showpageshadow="0"
     inkscape:pageopacity="0"
     inkscape:pagecheckerboard="0"
     inkscape:deskcolor="#505050"
     inkscape:document-units="px"
     showguides="true"
     inkscape:zoom="5.6568543"
     inkscape:cx="60.98796"
     inkscape:cy="27.488776"
     inkscape:window-width="1920"
     inkscape:window-height="986"
     inkscape:window-x="-11"
     inkscape:window-y="-11"
     inkscape:window-maximized="1"
     inkscape:current-layer="layer1">
    <sodipodi:guide
       position="116.11125,78.357"
       orientation="0,-1"
       id="guide1"
       inkscape:locked="false" />
  </sodipodi:namedview>
  <defs
     id="defs1">
    <inkscape:path-effect
       effect="fillet_chamfer"
       id="path-effect12"
       is_visible="true"
       lpeversion="1"
       nodesatellites_param="F,0,0,1,0,0,0,1 @ F,0,0,1,0,0,0,1 @ F,0,0,1,0,0,0,1 @ F,0,0,1,0,0,0,1 @ F,0,0,1,0,0,0,1 | F,0,0,1,0,0,0,1 @ F,0,0,1,0,2.1097055,0,1 @ F,0,0,1,0,0,0,1"
       radius="0"
       unit="px"
       method="auto"
       mode="F"
       chamfer_steps="1"
       flexible="false"
       use_knot_distance="true"
       apply_no_radius="true"
       apply_with_radius="true"
       only_selected="false"
       hide_knots="false" />
    <inkscape:path-effect
       effect="fillet_chamfer"
       id="path-effect15"
       is_visible="true"
       lpeversion="1"
       nodesatellites_param="F,0,0,1,0,0,0,1 @ F,0,0,1,0,0,0,1 @ F,0,0,1,0,0,0,1 @ F,0,0,1,0,0,0,1 @ F,0,0,1,0,0,0,1 | F,0,0,1,0,0,0,1 @ F,0,0,1,0,2.236068,0,1 @ F,0,0,1,0,0,0,1"
       radius="0"
       unit="px"
       method="auto"
       mode="F"
       chamfer_steps="1"
       flexible="false"
       use_knot_distance="true"
       apply_no_radius="true"
       apply_with_radius="true"
       only_selected="false"
       hide_knots="false" />
    <inkscape:path-effect
       effect="fillet_chamfer"
       id="path-effect14-8"
       is_visible="true"
       lpeversion="1"
       nodesatellites_param="F,0,0,1,0,0,0,1 @ F,0,0,1,0,0,0,1 @ F,0,0,1,0,0,0,1 @ F,0,0,1,0,0,0,1 @ F,0,0,1,0,0,0,1 | F,0,0,1,0,0,0,1 @ F,0,0,1,0,2.1097055,0,1 @ F,0,0,1,0,0,0,1"
       radius="0"
       unit="px"
       method="auto"
       mode="F"
       chamfer_steps="1"
       flexible="false"
       use_knot_distance="true"
       apply_no_radius="true"
       apply_with_radius="true"
       only_selected="false"
       hide_knots="false" />
    <mask
       maskUnits="userSpaceOnUse"
       id="mask2">
      <g
         id="g3">
        <rect
           style="fill:#ffffff;fill-opacity:1;stroke:none;stroke-width:14.893;stroke-linecap:round;stroke-linejoin:round;stroke-dashoffset:32.1279;paint-order:markers fill stroke"
           id="rect3"
           width="128"
           height="48"
           x="0"
           y="0" />
        <path
           style="mix-blend-mode:normal;fill:none;fill-opacity:1;stroke:#000000;stroke-width:6;stroke-linecap:round;stroke-linejoin:round;stroke-dasharray:none;stroke-dashoffset:32.1279;stroke-opacity:1;paint-order:markers fill stroke"
           d="m 36.000036,20.070422 1,5 2,-2 2,2 2,-3 m 5,-11 a 4.472136,4.472136 0 0 1 4,0"
           id="path3"
           sodipodi:nodetypes="cccccccc"
           inkscape:original-d="m 36.000036,20.070422 1,5 2,-2 2,2 2,-3 m 5,-11 2,-1 2,1"
           inkscape:path-effect="#path-effect15" />
      </g>
    </mask>
    <mask
       maskUnits="userSpaceOnUse"
       id="mask5">
      <g
         id="g8">
        <rect
           style="display:inline;fill:#ffffff;fill-opacity:1;stroke:none;stroke-width:14.2539;stroke-linecap:round;stroke-linejoin:round;stroke-dashoffset:32.1279;paint-order:markers fill stroke"
           id="rect6"
           width="134"
           height="42"
           x="0"
           y="0" />
        <path
           style="color:#000000;-inkscape-font-specification:sans-serif;display:inline;mix-blend-mode:normal;fill:#000000;fill-opacity:1;stroke:#000000;stroke-width:8;stroke-linecap:round;stroke-linejoin:round;stroke-dasharray:none;stroke-dashoffset:32.1279;stroke-opacity:1;paint-order:markers fill stroke"
           d="m 55.478541,7.925507 6.000495,-8.5e-5 -3.29928,4.76122 c 0.634818,1.878543 0.952227,4.009717 0.952227,6.393523 0,2.383807 -0.323887,4.521459 -0.97166,6.412957 -0.634818,1.878543 -1.528745,3.446154 -2.681782,4.702835 -1.191903,1.308502 -2.604048,2.293118 -4.236438,2.953847 -1.619433,0.660729 -3.472065,0.991093 -5.557896,0.991093 -2.034008,0 -3.88664,-0.336842 -5.557896,-1.010526 -1.658299,-0.673685 -3.070445,-1.651823 -4.236438,-2.934414 -3.97129,-3.062309 -7.634008,-9.565138 -7.634008,-11.115792 h 4 c 0,-2.357895 0.31093,-4.469636 0.932794,-6.335224 0.621862,-1.878543 1.528745,-3.485021 2.720647,-4.819434 1.140082,-1.269636 2.552228,-2.241296 4.236439,-2.91498 C 41.842911,4.336842 43.689065,4 45.684207,4 c 2.072875,0 3.931985,0.34332 5.577329,1.02996 1.6583,0.673685 3.063969,1.638867 4.217005,2.895547 z"
           id="path7"
           sodipodi:nodetypes="cccscccscscccccscc"
           mask="none" />
        <path
           style="color:#000000;-inkscape-font-specification:sans-serif;display:inline;mix-blend-mode:normal;fill:#000000;fill-opacity:1;stroke:#000000;stroke-width:8;stroke-linecap:round;stroke-linejoin:round;stroke-dasharray:none;stroke-dashoffset:32.1279;stroke-opacity:1;paint-order:markers fill stroke"
           d="m 100.75792,7.925507 -6.000494,-8.5e-5 3.29928,4.76122 c -0.63482,1.878543 -0.95223,4.009717 -0.95223,6.393523 0,2.383807 0.32389,4.521459 0.97166,6.412957 0.63482,1.878543 1.52875,3.446154 2.681784,4.702835 1.19191,1.308502 2.60405,2.293118 4.23644,2.953847 1.61944,0.660729 3.47207,0.991093 5.5579,0.991093 2.03401,0 3.88664,-0.336842 5.55789,-1.010526 1.6583,-0.673685 3.07045,-1.651823 4.23644,-2.934414 3.97129,-3.062309 7.63401,-9.565138 7.63401,-11.115792 h -4 c 0,-2.357895 -0.31093,-4.469636 -0.93279,-6.335224 -0.62187,-1.878543 -1.52875,-3.485021 -2.72065,-4.819434 -1.14008,-1.269636 -2.55223,-2.241296 -4.23644,-2.91498 C 114.39355,4.336842 112.5474,4 110.55226,4 c -2.07288,0 -3.93199,0.34332 -5.57733,1.02996 -1.6583,0.673685 -3.06397,1.638867 -4.21701,2.895547 z"
           id="path8"
           sodipodi:nodetypes="cccscccscscccccscc"
           mask="none" />
      </g>
    </mask>
  </defs>
  <g
     inkscape:label="Layer 1"
     inkscape:groupmode="layer"
     id="layer1">
    <path
       style="color:#000000;-inkscape-font-specification:sans-serif;mix-blend-mode:normal;fill:#ffffff;stroke:#ffffff;stroke-width:4;stroke-linecap:round;stroke-linejoin:round;stroke-dasharray:none;stroke-dashoffset:32.1279;stroke-opacity:1;paint-order:markers fill stroke"
       d="M 26.134441,33.538468 H 22.286667 V 19.371663 H 7.8477979 V 33.538468 H 4.0000238 V 4.60243 H 7.8477979 V 15.95142 H 22.286667 V 4.60243 h 3.847774 z m 64.868029,0 H 87.154697 V 8.605669 L 79.10935,25.570855 H 76.816232 L 68.829186,8.605669 V 33.538468 H 65.234044 V 4.60243 h 5.246965 L 78.19599,20.712554 85.658339,4.60243 H 91.00247 Z M 120.3466,7.925507 c 1.17895,1.2955473 2.07935,2.882592 2.70121,4.761135 0.63482,1.878543 0.95223,4.009717 0.95223,6.393523 0,2.383807 -0.32389,4.521459 -0.97166,6.412957 -0.63482,1.878543 -1.52875,3.446154 -2.68178,4.702835 -1.19191,1.308502 -2.60405,2.293118 -4.23644,2.953847 -1.61943,0.660729 -3.47207,0.991093 -5.5579,0.991093 -2.03401,0 -3.88664,-0.336842 -5.55789,-1.010526 -1.6583,-0.673685 -3.07045,-1.651823 -4.23644,-2.934414 -1.165988,-1.282591 -2.066391,-2.856681 -2.701209,-4.722268 -0.621863,-1.865587 -0.932794,-3.996762 -0.932794,-6.393524 0,-2.357895 0.310931,-4.469636 0.932794,-6.335224 0.621863,-1.878543 1.528742,-3.4850207 2.720639,-4.819434 1.14009,-1.269636 2.55223,-2.241296 4.23644,-2.91498 C 106.71097,4.3368423 108.55712,4 110.55226,4 c 2.07288,0 3.93199,0.34332 5.57733,1.02996 1.6583,0.6736847 3.06397,1.638867 4.21701,2.895547 z m -0.3498,11.154658 c 0,-3.757085 -0.84211,-6.652632 -2.52632,-8.686641 -1.68421,-2.046964 -3.9838,-3.070446 -6.89878,-3.070446 -2.94089,0 -5.25345,1.023482 -6.93766,3.070446 -1.67125,2.034009 -2.50688,4.929556 -2.50688,8.686641 0,3.795953 0.85506,6.704455 2.56518,8.725508 1.71013,2.008098 4.00325,3.012147 6.87936,3.012147 2.87611,0 5.16275,-1.004049 6.85992,-3.012147 1.71012,-2.021053 2.56518,-4.929555 2.56518,-8.725508 z"
       id="path6"
       sodipodi:nodetypes="cccccccccccccccccccccccccccccscccscscscccsccscscscscs"
       mask="url(#mask5)"
       transform="translate(1.9999681,4.9295515)" />
    <g
       id="g9"
       style="display:inline"
       transform="translate(1.9999681,4.9295515)">
      <path
         style="color:#000000;-inkscape-font-specification:sans-serif;display:inline;mix-blend-mode:normal;fill:#ffffff;stroke:#ffffff;stroke-width:4;stroke-linecap:round;stroke-linejoin:round;stroke-dasharray:none;stroke-dashoffset:32.1279;stroke-opacity:1;paint-order:markers fill stroke"
         d="m 55.478541,7.925507 6.000495,-8.5e-5 -3.29928,4.76122 c 0.634818,1.878543 0.952227,4.009717 0.952227,6.393523 0,2.383807 -0.323887,4.521459 -0.97166,6.412957 -0.634818,1.878543 -1.528745,3.446154 -2.681782,4.702835 -1.191903,1.308502 -2.604048,2.293118 -4.236438,2.953847 -1.619433,0.660729 -3.472065,0.991093 -5.557896,0.991093 -2.034008,0 -3.88664,-0.336842 -5.557896,-1.010526 -1.658299,-0.673685 -3.070445,-1.651823 -4.236438,-2.934414 -3.97129,-3.062309 -7.634008,-9.565138 -7.634008,-11.115792 h 4 c 0,-2.357895 0.31093,-4.469636 0.932794,-6.335224 0.621862,-1.878543 1.528745,-3.485021 2.720647,-4.819434 1.140082,-1.269636 2.552228,-2.241296 4.236439,-2.91498 C 41.842911,4.336842 43.689065,4 45.684207,4 c 2.072875,0 3.931985,0.34332 5.577329,1.02996 1.6583,0.673685 3.063969,1.638867 4.217005,2.895547 z"
         id="path1-4"
         sodipodi:nodetypes="cccscccscscccccscc"
         mask="url(#mask2)" />
      <path
         style="display:inline;mix-blend-mode:normal;fill:none;fill-opacity:1;stroke:#ffffff;stroke-width:2;stroke-linecap:round;stroke-linejoin:round;stroke-dasharray:none;stroke-dashoffset:32.1279;stroke-opacity:1;paint-order:markers fill stroke"
         d="m 36,68.999987 1,5 2,-2 2,2 2,-3 m 5,-11 0.113022,-0.05651 a 4.219411,4.219411 0 0 1 3.773956,0 L 52,59.999987"
         id="path12-3"
         sodipodi:nodetypes="cccccccc"
         inkscape:path-effect="#path-effect14-8"
         inkscape:original-d="m 36,68.999987 1,5 2,-2 2,2 2,-3 m 5,-11 2,-1 2,1"
         transform="translate(3.66e-5,-48.929565)" />
      <path
         d="m 47.000001,34 1,7 h 2 m -9,0 -2,-1 2,-6"
         style="fill:none;fill-opacity:1;stroke:#ffffff;stroke-width:2;stroke-linecap:round;stroke-linejoin:round;stroke-dasharray:none;stroke-dashoffset:32.1279;stroke-opacity:1;paint-order:markers fill stroke"
         id="path1-40-9"
         sodipodi:nodetypes="cccccc" />
    </g>
    <g
       id="g11"
       transform="matrix(-1,0,0,1,158.23644,4.9295515)"
       style="display:inline">
      <path
         style="color:#000000;-inkscape-font-specification:sans-serif;display:inline;mix-blend-mode:normal;fill:#ffffff;stroke:#ffffff;stroke-width:4;stroke-linecap:round;stroke-linejoin:round;stroke-dasharray:none;stroke-dashoffset:32.1279;stroke-opacity:1;paint-order:markers fill stroke"
         d="m 55.478541,7.925507 6.000495,-8.5e-5 -3.29928,4.76122 c 0.634818,1.878543 0.952227,4.009717 0.952227,6.393523 0,2.383807 -0.323887,4.521459 -0.97166,6.412957 -0.634818,1.878543 -1.528745,3.446154 -2.681782,4.702835 -1.191903,1.308502 -2.604048,2.293118 -4.236438,2.953847 -1.619433,0.660729 -3.472065,0.991093 -5.557896,0.991093 -2.034008,0 -3.88664,-0.336842 -5.557896,-1.010526 -1.658299,-0.673685 -3.070445,-1.651823 -4.236438,-2.934414 -3.97129,-3.062309 -7.634008,-9.565138 -7.634008,-11.115792 h 4 c 0,-2.357895 0.31093,-4.469636 0.932794,-6.335224 0.621862,-1.878543 1.528745,-3.485021 2.720647,-4.819434 1.140082,-1.269636 2.552228,-2.241296 4.236439,-2.91498 C 41.842911,4.336842 43.689065,4 45.684207,4 c 2.072875,0 3.931985,0.34332 5.577329,1.02996 1.6583,0.673685 3.063969,1.638867 4.217005,2.895547 z"
         id="path9"
         sodipodi:nodetypes="cccscccscscccccscc"
         mask="url(#mask2)" />
      <path
         style="display:inline;mix-blend-mode:normal;fill:none;fill-opacity:1;stroke:#ffffff;stroke-width:2;stroke-linecap:round;stroke-linejoin:round;stroke-dasharray:none;stroke-dashoffset:32.1279;stroke-opacity:1;paint-order:markers fill stroke"
         d="m 36,68.999987 1,5 2,-2 2,2 2,-3 m 5,-11 0.113022,-0.05651 a 4.219411,4.219411 0 0 1 3.773956,0 L 52,59.999987"
         id="path10"
         sodipodi:nodetypes="cccccccc"
         inkscape:path-effect="#path-effect12"
         inkscape:original-d="m 36,68.999987 1,5 2,-2 2,2 2,-3 m 5,-11 2,-1 2,1"
         transform="translate(3.66e-5,-48.929565)" />
      <path
         d="m 47.000001,34 1,7 h 2 m -9,0 -2,-1 2,-6"
         style="fill:none;fill-opacity:1;stroke:#ffffff;stroke-width:2;stroke-linecap:round;stroke-linejoin:round;stroke-dasharray:none;stroke-dashoffset:32.1279;stroke-opacity:1;paint-order:markers fill stroke"
         id="path11"
         sodipodi:nodetypes="cccccc" />
    </g>
  </g>
</svg>
