<?xml version="1.0" encoding="UTF-8" standalone="no"?>
<!-- Created with Inkscape (http://www.inkscape.org/) -->

<svg
   width="48"
   height="48"
   viewBox="0 0 48 48"
   version="1.1"
   id="svg1"
   inkscape:export-filename="homie.svg"
   inkscape:export-xdpi="64"
   inkscape:export-ydpi="64"
   inkscape:version="1.3.2 (091e20e, 2023-11-25, custom)"
   sodipodi:docname="homie.svg"
   xmlns:inkscape="http://www.inkscape.org/namespaces/inkscape"
   xmlns:sodipodi="http://sodipodi.sourceforge.net/DTD/sodipodi-0.dtd"
   xmlns="http://www.w3.org/2000/svg"
   xmlns:svg="http://www.w3.org/2000/svg">
  <sodipodi:namedview
     id="namedview1"
     pagecolor="#505050"
     bordercolor="#eeeeee"
     borderopacity="1"
     inkscape:showpageshadow="0"
     inkscape:pageopacity="0"
     inkscape:pagecheckerboard="0"
     inkscape:deskcolor="#505050"
     inkscape:document-units="px"
     showguides="true"
     inkscape:zoom="8"
     inkscape:cx="16.375"
     inkscape:cy="29.1875"
     inkscape:window-width="1920"
     inkscape:window-height="986"
     inkscape:window-x="-11"
     inkscape:window-y="-11"
     inkscape:window-maximized="1"
     inkscape:current-layer="layer1">
    <sodipodi:guide
       position="116.11125,78.357"
       orientation="0,-1"
       id="guide1"
       inkscape:locked="false" />
  </sodipodi:namedview>
  <defs
     id="defs1">
    <inkscape:path-effect
       effect="fillet_chamfer"
       id="path-effect15"
       is_visible="true"
       lpeversion="1"
       nodesatellites_param="F,0,0,1,0,0,0,1 @ F,0,0,1,0,0,0,1 @ F,0,0,1,0,0,0,1 @ F,0,0,1,0,0,0,1 @ F,0,0,1,0,0,0,1 | F,0,0,1,0,0,0,1 @ F,0,0,1,0,2.236068,0,1 @ F,0,0,1,0,0,0,1"
       radius="0"
       unit="px"
       method="auto"
       mode="F"
       chamfer_steps="1"
       flexible="false"
       use_knot_distance="true"
       apply_no_radius="true"
       apply_with_radius="true"
       only_selected="false"
       hide_knots="false" />
    <inkscape:path-effect
       effect="fillet_chamfer"
       id="path-effect14-8"
       is_visible="true"
       lpeversion="1"
       nodesatellites_param="F,0,0,1,0,0,0,1 @ F,0,0,1,0,0,0,1 @ F,0,0,1,0,0,0,1 @ F,0,0,1,0,0,0,1 @ F,0,0,1,0,0,0,1 | F,0,0,1,0,0,0,1 @ F,0,0,1,0,2.1097055,0,1 @ F,0,0,1,0,0,0,1"
       radius="0"
       unit="px"
       method="auto"
       mode="F"
       chamfer_steps="1"
       flexible="false"
       use_knot_distance="true"
       apply_no_radius="true"
       apply_with_radius="true"
       only_selected="false"
       hide_knots="false" />
    <mask
       maskUnits="userSpaceOnUse"
       id="mask2">
      <g
         id="g3">
        <rect
           style="fill:#ffffff;fill-opacity:1;stroke:none;stroke-width:14.893;stroke-linecap:round;stroke-linejoin:round;stroke-dashoffset:32.1279;paint-order:markers fill stroke"
           id="rect3"
           width="128"
           height="48"
           x="0"
           y="0" />
        <path
           style="mix-blend-mode:normal;fill:none;fill-opacity:1;stroke:#000000;stroke-width:6;stroke-linecap:round;stroke-linejoin:round;stroke-dasharray:none;stroke-dashoffset:32.1279;stroke-opacity:1;paint-order:markers fill stroke"
           d="m 36.000036,20.070422 1,5 2,-2 2,2 2,-3 m 5,-11 a 4.472136,4.472136 0 0 1 4,0"
           id="path3"
           sodipodi:nodetypes="cccccccc"
           inkscape:original-d="m 36.000036,20.070422 1,5 2,-2 2,2 2,-3 m 5,-11 2,-1 2,1"
           inkscape:path-effect="#path-effect15" />
      </g>
    </mask>
  </defs>
  <g
     inkscape:label="Layer 1"
     inkscape:groupmode="layer"
     id="layer1">
    <g
       id="g1"
       style="display:inline"
       transform="translate(-20.86736,4.9295515)">
      <path
         style="color:#000000;-inkscape-font-specification:sans-serif;display:inline;mix-blend-mode:normal;fill:#ffffff;stroke:#ffffff;stroke-width:4;stroke-linecap:round;stroke-linejoin:round;stroke-dasharray:none;stroke-dashoffset:32.1279;stroke-opacity:1;paint-order:markers fill stroke"
         d="m 55.478541,7.925507 6.000495,-8.5e-5 -3.29928,4.76122 c 0.634818,1.878543 0.952227,4.009717 0.952227,6.393523 0,2.383807 -0.323887,4.521459 -0.97166,6.412957 -0.634818,1.878543 -1.528745,3.446154 -2.681782,4.702835 -1.191903,1.308502 -2.604048,2.293118 -4.236438,2.953847 -1.619433,0.660729 -3.472065,0.991093 -5.557896,0.991093 -2.034008,0 -3.88664,-0.336842 -5.557896,-1.010526 -1.658299,-0.673685 -3.070445,-1.651823 -4.236438,-2.934414 -3.97129,-3.062309 -7.634008,-9.565138 -7.634008,-11.115792 h 4 c 0,-2.357895 0.31093,-4.469636 0.932794,-6.335224 0.621862,-1.878543 1.528745,-3.485021 2.720647,-4.819434 1.140082,-1.269636 2.552228,-2.241296 4.236439,-2.91498 C 41.842911,4.336842 43.689065,4 45.684207,4 c 2.072875,0 3.931985,0.34332 5.577329,1.02996 1.6583,0.673685 3.063969,1.638867 4.217005,2.895547 z"
         id="path1-4"
         sodipodi:nodetypes="cccscccscscccccscc"
         mask="url(#mask2)" />
      <path
         style="display:inline;mix-blend-mode:normal;fill:none;fill-opacity:1;stroke:#ffffff;stroke-width:2;stroke-linecap:round;stroke-linejoin:round;stroke-dasharray:none;stroke-dashoffset:32.1279;stroke-opacity:1;paint-order:markers fill stroke"
         d="m 36,68.999987 1,5 2,-2 2,2 2,-3 m 5,-11 0.113022,-0.05651 a 4.219411,4.219411 0 0 1 3.773956,0 L 52,59.999987"
         id="path12-3"
         sodipodi:nodetypes="cccccccc"
         inkscape:path-effect="#path-effect14-8"
         inkscape:original-d="m 36,68.999987 1,5 2,-2 2,2 2,-3 m 5,-11 2,-1 2,1"
         transform="translate(3.66e-5,-48.929565)" />
      <path
         d="m 47.000001,34 1,7 h 2 m -9,0 -2,-1 2,-6"
         style="display:inline;fill:none;fill-opacity:1;stroke:#ffffff;stroke-width:2;stroke-linecap:round;stroke-linejoin:round;stroke-dasharray:none;stroke-dashoffset:32.1279;stroke-opacity:1;paint-order:markers fill stroke"
         id="path1-40-9"
         sodipodi:nodetypes="cccccc" />
    </g>
  </g>
</svg>
